<?xml version="1.0" standalone="no"?>
<!DOCTYPE svg PUBLIC "-//W3C//DTD SVG 20010904//EN"
 "http://www.w3.org/TR/2001/REC-SVG-20010904/DTD/svg10.dtd">
<svg version="1.0" xmlns="http://www.w3.org/2000/svg"
 width="512.000000pt" height="512.000000pt" viewBox="0 0 512.000000 512.000000"
 preserveAspectRatio="xMidYMid meet">

<g transform="translate(0.000000,512.000000) scale(0.100000,-0.100000)"
fill="#EE82EEFF" stroke="none">
<path d="M145 4361 c-49 -30 -68 -58 -72 -108 -6 -58 23 -108 77 -135 33 -17
169 -18 2410 -18 2241 0 2377 1 2410 18 106 53 105 192 -2 248 -23 12 -383 14
-2410 14 -2303 0 -2384 -1 -2413 -19z"/>
<path d="M150 2682 c-46 -23 -80 -75 -80 -122 0 -47 34 -99 80 -122 33 -17
169 -18 2410 -18 2241 0 2377 1 2410 18 104 52 104 192 0 244 -33 17 -169 18
-2410 18 -2241 0 -2377 -1 -2410 -18z"/>
<path d="M150 1002 c-106 -53 -105 -192 2 -248 41 -21 4775 -21 4816 0 78 40
105 130 60 196 -13 19 -39 43 -58 52 -33 17 -169 18 -2410 18 -2241 0 -2377
-1 -2410 -18z"/>
</g>
</svg>
