<?xml version="1.0" standalone="no"?>
<!DOCTYPE svg PUBLIC "-//W3C//DTD SVG 20010904//EN"
 "http://www.w3.org/TR/2001/REC-SVG-20010904/DTD/svg10.dtd">
<svg version="1.0" xmlns="http://www.w3.org/2000/svg"
 width="512.000000pt" height="512.000000pt" viewBox="0 0 512.000000 512.000000"
 preserveAspectRatio="xMidYMid meet">

<g transform="translate(0.000000,512.000000) scale(0.100000,-0.100000)"
fill="#FFFFFF" stroke="none">
<path d="M2490 4945 c-139 -31 -275 -123 -355 -239 l-38 -56 -61 0 c-130 0
-247 -52 -352 -155 -81 -80 -126 -161 -149 -270 -18 -88 -18 -122 0 -209 l15
-69 -30 -38 c-44 -55 -70 -120 -77 -192 -18 -200 143 -393 360 -429 67 -11 67
-11 112 -73 74 -104 176 -190 290 -245 127 -61 218 -82 360 -81 138 0 237 24
360 86 181 91 323 251 386 435 l24 71 80 42 c94 49 221 170 273 259 118 200
122 447 11 675 -44 92 -130 193 -207 241 -98 63 -231 78 -341 39 l-45 -16 -66
62 c-80 76 -133 108 -235 142 -98 33 -223 41 -315 20z m-84 -1044 c22 -8 44
-31 70 -74 52 -83 173 -208 257 -264 38 -25 101 -58 141 -74 74 -28 221 -55
256 -46 29 7 25 -8 -22 -87 -75 -127 -203 -233 -337 -281 -119 -42 -286 -38
-422 9 -271 94 -444 349 -425 626 3 47 12 108 19 135 l13 50 65 12 c79 15 342
11 385 -6z m-633 -78 c-12 -44 -8 -263 6 -312 7 -23 10 -45 7 -48 -9 -9 -68
20 -104 51 -69 60 -98 162 -68 240 20 53 36 67 90 82 70 19 77 18 69 -13z"/>
<path d="M2010 2854 c-175 -47 -436 -161 -515 -226 -42 -35 -48 -81 -15 -116
33 -35 83 -29 160 18 77 47 242 118 357 153 l81 25 36 -58 c182 -295 650 -291
818 7 l29 52 52 -16 c113 -33 248 -88 367 -150 112 -58 128 -64 153 -54 17 7
34 24 43 46 13 31 13 39 0 63 -37 71 -459 253 -644 278 -42 5 -52 3 -74 -17
-14 -13 -33 -46 -43 -73 -23 -63 -85 -130 -150 -164 -38 -19 -70 -27 -133 -30
-77 -4 -87 -2 -147 27 -75 37 -136 101 -161 169 -24 65 -51 92 -88 91 -17 0
-74 -12 -126 -25z"/>
<path d="M982 2369 c-99 -49 -168 -146 -178 -251 -4 -38 22 -229 90 -673 53
-340 96 -625 96 -632 0 -9 -20 -13 -74 -13 -84 0 -78 -6 -96 95 -19 107 -24
286 -10 405 11 107 11 114 -8 139 -15 21 -27 26 -62 26 -61 0 -76 -25 -90
-147 -18 -175 -10 -338 26 -505 l15 -73 -35 -30 c-19 -17 -48 -57 -63 -88 -23
-48 -28 -70 -28 -137 0 -67 5 -89 28 -136 35 -73 88 -126 156 -158 l56 -26
1755 0 1755 0 67 33 c114 56 172 152 172 287 0 122 -50 213 -151 272 -33 19
-42 30 -38 43 14 44 35 244 35 335 0 144 -17 275 -39 305 -27 36 -96 36 -123
-1 -18 -24 -19 -33 -9 -115 15 -124 14 -271 -4 -389 -22 -145 -14 -135 -101
-135 -43 0 -74 4 -74 10 0 6 27 180 60 388 81 515 130 852 130 901 0 103 -85
226 -190 275 l-55 26 -1476 0 -1476 0 -61 -31z m1873 -474 c14 -13 25 -35 25
-49 0 -36 -487 -1168 -511 -1189 -45 -37 -129 -2 -129 55 0 34 488 1170 512
1191 29 25 74 22 103 -8z m-764 -84 c31 -32 35 -50 18 -84 -6 -12 -97 -109
-202 -214 l-192 -193 203 -203 c111 -112 202 -211 202 -221 0 -25 -27 -73 -45
-80 -54 -20 -64 -13 -313 237 -206 207 -242 247 -242 272 0 25 36 66 243 272
268 268 271 270 328 214z m1246 -214 c207 -206 243 -247 243 -272 0 -25 -36
-65 -242 -272 -215 -215 -246 -243 -274 -243 -41 0 -72 26 -80 68 -7 32 -1 39
197 238 l204 204 -192 193 c-105 105 -196 202 -202 214 -17 34 -13 52 18 84
57 56 60 54 328 -214z m-2317 -966 c0 -32 42 -247 54 -276 l15 -35 -117 0
c-102 0 -124 3 -162 23 -85 42 -115 160 -58 232 41 53 75 65 176 65 50 0 92
-4 92 -9z m3289 -6 c116 -59 116 -225 1 -282 -40 -21 -58 -23 -201 -23 l-157
0 19 50 c14 37 49 227 49 267 0 2 59 3 130 3 96 0 139 -4 159 -15z"/>
</g>
</svg>
